HIERARCHY
ROOT Hips
{
	OFFSET -0.001795 -0.223333 0.028219
	CHANNELS 6 Xposition Yposition Zposition Zrotation Yrotation Xrotation 
	JOINT LeftUpLeg
	{
		OFFSET 0.069520 -0.091406 -0.006815
		CHANNELS 3 Zrotation Yrotation Xrotation
		JOINT LeftLeg
		{
			OFFSET 0.034277 -0.375199 -0.004496
			CHANNELS 3 Zrotation Yrotation Xrotation
			JOINT LeftFoot
			{
				OFFSET -0.013596 -0.397961 -0.043693
				CHANNELS 3 Zrotation Yrotation Xrotation
				JOINT LeftToe
				{
					OFFSET 0.026358 -0.055791 0.119288
					CHANNELS 3 Zrotation Yrotation Xrotation
					End Site
					{
						OFFSET 0.000000 0.000000 0.000000
					}
				}
			}
		}
	}
	JOINT RightUpLeg
	{
		OFFSET -0.067670 -0.090522 -0.004320
		CHANNELS 3 Zrotation Yrotation Xrotation
		JOINT RightLeg
		{
			OFFSET -0.038290 -0.382569 -0.008850
			CHANNELS 3 Zrotation Yrotation Xrotation
			JOINT RightFoot
			{
				OFFSET 0.015774 -0.398415 -0.042312
				CHANNELS 3 Zrotation Yrotation Xrotation
				JOINT RightToe
				{
					OFFSET -0.025372 -0.048144 0.123348
					CHANNELS 3 Zrotation Yrotation Xrotation
					End Site
					{
						OFFSET 0.000000 0.000000 0.000000
					}
				}
			}
		}
	}
	JOINT Spine
	{
		OFFSET -0.002533 0.108963 -0.026696
		CHANNELS 3 Zrotation Yrotation Xrotation
		JOINT Spine1
		{
			OFFSET 0.005487 0.135180 0.001092
			CHANNELS 3 Zrotation Yrotation Xrotation
			JOINT Spine2
			{
				OFFSET 0.001457 0.052922 0.025425
				CHANNELS 3 Zrotation Yrotation Xrotation
				JOINT Neck
				{
					OFFSET -0.002778 0.213870 -0.042857
					CHANNELS 3 Zrotation Yrotation Xrotation
					JOINT Head
					{
						OFFSET 0.005152 0.064970 0.051349
						CHANNELS 3 Zrotation Yrotation Xrotation
						End Site
						{
							OFFSET 0.000000 0.000000 0.000000
						}
					}
				}
				JOINT LeftShoulder
				{
					OFFSET 0.078845 0.121749 -0.034090
					CHANNELS 3 Zrotation Yrotation Xrotation
					JOINT LeftArm
					{
						OFFSET 0.090977 0.030469 -0.008868
						CHANNELS 3 Zrotation Yrotation Xrotation
						JOINT LeftForeArm
						{
							OFFSET 0.259612 -0.012772 -0.027456
							CHANNELS 3 Zrotation Yrotation Xrotation
							JOINT LeftHand
							{
								OFFSET 0.249234 0.008986 -0.001171
								CHANNELS 3 Zrotation Yrotation Xrotation
								End Site
								{
									OFFSET 0.000000 0.000000 0.000000
								}
							}
						}
					}
				}
				JOINT RightShoulder
				{
					OFFSET -0.081759 0.118833 -0.038615
					CHANNELS 3 Zrotation Yrotation Xrotation
					JOINT RightArm
					{
						OFFSET -0.096012 0.032551 -0.009143
						CHANNELS 3 Zrotation Yrotation Xrotation
						JOINT RightForeArm
						{
							OFFSET -0.253742 -0.013329 -0.021401
							CHANNELS 3 Zrotation Yrotation Xrotation
							JOINT RightHand
							{
								OFFSET -0.255298 0.007772 -0.005559
								CHANNELS 3 Zrotation Yrotation Xrotation
								End Site
								{
									OFFSET 0.000000 0.000000 0.000000
								}
							}
						}
					}
				}
			}
		}
	}
}
MOTION
Frames: 10
Frame Time: 0.050000
0.000000 0.952751 0.000000 -0.220361 -6.656308 -1.531814 2.039329 0.120968 1.378114 0.376878 -0.027858 -0.527284 0.404956 4.473251 11.821545 0.000000 0.000000 0.000000 -1.581137 0.028817 0.301156 -0.380750 0.052693 0.379507 3.705559 1.572735 11.268577 0.000000 0.000000 0.000000 4.092889 -0.143156 1.779812 -2.562601 1.210606 -1.172220 -2.641519 5.501183 7.416133 7.301276 -4.153975 -9.985555 0.000000 0.000000 0.000000 -15.030025 -13.305755 4.712377 -55.955947 -8.577602 -2.966861 -6.526801 -17.859906 1.637737 0.000000 0.000000 0.000000 15.519346 8.237291 3.324227 60.596898 7.508423 -2.411542 7.796824 19.150377 1.872101 0.000000 0.000000 0.000000 
0.000052 0.952833 -0.000043 -0.062769 -7.459865 -1.673237 2.072450 0.161340 1.811915 -0.071321 0.035935 -0.868319 0.724100 4.967225 12.045812 0.000000 0.000000 0.000000 -1.504348 0.026660 0.327182 -0.905439 0.102507 0.377984 4.053228 2.167958 11.214344 0.000000 0.000000 0.000000 4.158262 -0.141415 1.775103 -2.528288 1.202455 -0.704707 -3.162144 6.287374 6.827536 7.656741 -4.374495 -9.837584 0.000000 0.000000 0.000000 -14.352410 -13.212014 4.532651 -56.726443 -8.247398 -3.117175 -6.205422 -16.776800 1.476744 0.000000 0.000000 0.000000 15.138135 8.365421 3.467937 61.399563 7.826360 -2.188050 7.478849 18.614502 1.772275 0.000000 0.000000 0.000000 
0.000012 0.952305 -0.000022 -0.243435 -7.289772 -1.270008 2.487691 0.133473 1.541100 -0.433948 0.086887 -1.160452 0.655947 4.837748 11.899212 0.000000 0.000000 0.000000 -1.354805 0.041894 0.073915 -0.797049 0.080135 0.129229 3.960378 2.028357 11.186292 0.000000 0.000000 0.000000 3.941068 -0.116297 1.402775 -2.170849 1.017275 -1.414401 -3.139564 6.315330 7.310029 7.393519 -4.143969 -10.114751 0.000000 0.000000 0.000000 -15.413615 -12.695230 4.284764 -56.588386 -8.379217 -3.068977 -5.366258 -16.121798 1.303789 0.000000 0.000000 0.000000 15.603510 7.821998 3.239670 61.887471 7.729494 -2.302570 6.612701 19.171575 1.714264 0.000000 0.000000 0.000000 
0.000017 0.952278 0.000060 -0.266834 -7.011900 -1.468772 2.444819 0.181231 2.158811 -0.274522 0.091906 -1.917543 0.470352 4.584504 11.978963 0.000000 0.000000 0.000000 -1.144594 -0.007675 0.565041 -1.109476 0.089609 -0.278092 3.857745 1.840165 11.224999 0.000000 0.000000 0.000000 4.058808 -0.070396 0.816135 -1.955775 0.936273 -0.302056 -3.658531 6.799631 6.610510 7.809459 -4.428367 -9.736778 0.000000 0.000000 0.000000 -14.292350 -13.800860 4.622316 -57.310007 -8.228742 -3.128779 -5.149248 -16.035703 1.249158 0.000000 0.000000 0.000000 15.182672 8.283441 3.619088 62.133614 7.657893 -2.254195 6.589752 19.382115 1.744084 0.000000 0.000000 0.000000 
0.000055 0.951989 0.000120 -0.392183 -6.873357 -1.308855 2.417939 0.178349 2.146623 0.022188 0.069897 -2.203021 0.432692 4.514490 11.893005 0.000000 0.000000 0.000000 -0.921676 -0.022550 0.636017 -1.256275 0.084151 -0.651230 3.803012 1.735818 11.254953 0.000000 0.000000 0.000000 4.030501 -0.052864 0.560769 -1.833937 0.873341 -0.585587 -3.642178 7.095924 7.197616 7.726426 -4.289594 -10.097960 0.000000 0.000000 0.000000 -14.487124 -14.019936 4.676723 -56.638595 -8.615218 -2.949071 -5.612107 -16.214689 1.323950 0.000000 0.000000 0.000000 15.537871 8.178409 3.671340 62.130321 7.888303 -2.193650 6.170560 19.710735 1.725688 0.000000 0.000000 0.000000 
0.000045 0.952023 0.000068 -0.372368 -7.161556 -1.566693 2.238696 0.207101 2.431772 0.274327 0.041150 -2.143892 0.575525 4.722299 11.900320 0.000000 0.000000 0.000000 -0.790660 -0.081125 1.267723 -1.565128 0.073556 -1.353699 3.997864 1.989613 11.405825 0.000000 0.000000 0.000000 3.934662 -0.078591 0.953679 -1.950345 0.934666 -0.244873 -3.633253 7.414039 6.495292 8.045212 -4.490034 -10.053166 0.000000 0.000000 0.000000 -14.249076 -14.068433 4.630590 -56.560210 -8.181131 -3.087393 -6.220421 -17.141700 1.479300 0.000000 0.000000 0.000000 15.515416 8.478938 3.851547 61.911121 7.926936 -2.104653 5.997701 19.830243 1.709114 0.000000 0.000000 0.000000 
0.000024 0.951858 0.000062 -0.452926 -6.970907 -1.124860 2.185625 0.166654 1.972178 0.535757 0.017059 -2.219839 0.529856 4.649388 11.850424 0.000000 0.000000 0.000000 -0.667117 -0.061075 0.968559 -1.603362 0.062532 -1.626266 3.914173 1.818363 11.468978 0.000000 0.000000 0.000000 3.962778 -0.042810 0.402891 -1.947970 0.932523 -0.295434 -3.591168 7.571388 6.507410 8.081167 -4.514625 -9.948915 0.000000 0.000000 0.000000 -13.783400 -13.726957 4.418784 -56.517879 -8.031667 -3.163385 -6.446076 -18.056906 1.585891 0.000000 0.000000 0.000000 15.307020 8.150208 3.729575 61.959088 7.933359 -2.084439 6.388146 20.263018 1.826208 0.000000 0.000000 0.000000 
0.000016 0.951820 0.000061 -0.434960 -6.261415 -0.735700 2.237459 0.140557 1.738719 0.484127 0.044168 -2.750431 0.163504 4.140467 11.929045 0.000000 0.000000 0.000000 -0.694670 -0.042352 0.750409 -1.516636 0.045861 -1.845637 3.590003 1.259901 11.521469 0.000000 0.000000 0.000000 3.917715 -0.038249 0.273664 -1.855914 0.889409 -0.254781 -3.688821 7.445379 6.041690 7.842043 -4.287697 -10.053251 0.000000 0.000000 0.000000 -12.769066 -13.176529 4.096114 -57.347739 -7.971342 -3.224189 -6.993570 -20.675379 1.893183 0.000000 0.000000 0.000000 14.563991 7.830087 3.583798 62.509263 7.747447 -2.094292 6.282939 20.542526 1.847244 0.000000 0.000000 0.000000 
-0.000128 0.951958 -0.000057 -0.535656 -5.843639 -0.575092 2.395914 0.122003 1.571260 0.461225 0.051471 -2.865931 -0.044205 3.848918 11.949046 0.000000 0.000000 0.000000 -0.882112 -0.036926 0.763589 -0.924478 -0.011542 -2.086197 3.458765 0.966081 11.714872 0.000000 0.000000 0.000000 4.274009 -0.047747 0.343957 -1.856354 0.889483 -0.290904 -4.045639 8.049132 5.609409 8.085065 -4.332759 -10.267218 0.000000 0.000000 0.000000 -11.546976 -13.390069 4.036016 -55.238365 -9.413922 -2.394715 -5.589229 -24.671853 1.892182 0.000000 0.000000 0.000000 14.290557 7.724278 3.698513 61.991541 7.484740 -2.163661 6.554856 20.633048 1.922300 0.000000 0.000000 0.000000 
-0.000635 0.951795 -0.000445 -0.793866 -4.477312 -0.282892 2.543444 0.076578 1.128772 0.905855 0.018296 -3.008638 -0.661942 2.936896 11.791608 0.000000 0.000000 0.000000 -0.342477 -0.042135 0.566404 -1.175263 0.014441 -2.008743 2.803372 -0.102807 11.703567 0.000000 0.000000 0.000000 4.330899 -0.023134 -0.036805 -1.420851 0.682827 -0.103094 -4.438611 8.051244 5.590249 7.865506 -4.148479 -10.091082 0.000000 0.000000 0.000000 -9.605657 -13.915499 4.187594 -52.220373 -13.096472 -0.675321 -1.016378 -33.076861 1.056383 0.000000 0.000000 0.000000 13.615367 7.656643 3.788940 62.459913 6.929122 -2.395869 7.499349 21.688305 2.235147 0.000000 0.000000 0.000000 
